Coordinates
version=1
nRows=29
nColumns=22
inDegrees=yes

Units are S.I. units (second, meters, Newtons, ...)
If the header above contains a line with 'inDegrees', this indicates whether rotational values are in degrees (yes) or radians (no).

endheader
time	pelvis_tilt	pelvis_list	pelvis_rotation	pelvis_tx	pelvis_ty	pelvis_tz	hip_flexion_r	hip_adduction_r	hip_rotation_r	knee_angle_r	ankle_angle_r	subtalar_angle_r	hip_flexion_l	hip_adduction_l	hip_rotation_l	knee_angle_l	ankle_angle_l	subtalar_angle_l	lumbar_extension	lumbar_bending	lumbar_rotation
      3.08000000	      0.76540010	      0.51693151	    177.39654400	     -0.00587824	      0.91448717	     -0.40802302	     19.64654174	     -5.54127267	      3.79765034	    -71.03936783	     -5.67505684	      9.85211431	     17.55899242	      9.71339916	     -9.10186733	    -25.89401833	     10.59070084	    -15.92249674	     -5.38765557	     -7.17629453	      1.43756838
      3.09000000	      0.69834992	      0.45194744	    178.56637376	     -0.01392551	      0.91542699	     -0.40475193	     21.04898387	     -5.69890445	      4.28178434	    -71.17920456	     -4.57310865	      9.18199061	     16.45134630	     10.28529216	     -8.03331114	    -25.14618785	     10.66394706	    -15.92078875	     -5.54940422	     -7.05193215	      0.58611540
      3.10000000	      0.64540624	      0.41879023	    179.79553815	     -0.02187820	      0.91637843	     -0.40133360	     22.34415295	     -5.82332831	      4.75086681	    -70.98994467	     -3.51475135	      8.50525777	     15.32796392	     10.80177936	     -6.88339626	    -24.37185585	     10.68290333	    -15.90488902	     -5.69016376	     -6.89177528	     -0.29468558
      3.11000000	      0.59635929	      0.42173082	    181.07178410	     -0.02975590	      0.91733164	     -0.39783271	     23.51686084	     -5.90241785	      5.20808325	    -70.48045421	     -2.47435430	      7.75100055	     14.19184306	     11.24826415	     -5.66155023	    -23.59743238	     10.70921426	    -15.87044017	     -5.81514409	     -6.69921766	     -1.18563465
      3.12000000	      0.55364208	      0.46977125	    182.39158382	     -0.03756187	      0.91827530	     -0.39427011	     24.56483268	     -5.93250793	      5.63417502	    -69.65113323	     -1.46194610	      6.96100076	     13.05939502	     11.61053640	     -4.37626105	    -22.84087325	     10.73525873	    -15.80858238	     -5.92274253	     -6.46766376	     -2.08396648
      3.13000000	      0.51229471	      0.56671783	    183.74479722	     -0.04530793	      0.91920218	     -0.39069029	     25.48036487	     -5.90488315	      6.02658139	    -68.50781433	     -0.47877710	      6.15069553	     11.94230079	     11.87953192	     -3.03704765	    -22.12680340	     10.77707452	    -15.71324691	     -6.01654891	     -6.19723533	     -2.97943441
      3.14000000	      0.46927468	      0.70884282	    185.11921115	     -0.05300310	      0.92009589	     -0.38712136	     26.26299412	     -5.82132869	      6.38152680	    -67.06378128	      0.48935685	      5.32058847	     10.85253849	     12.05614530	     -1.66066287	    -21.47434313	     10.85960214	    -15.58144067	     -6.09974440	     -5.89295588	     -3.86215535
      3.15000000	      0.41968859	      0.90730811	    186.52855965	     -0.06066240	      0.92097545	     -0.38355291	     26.90293340	     -5.68192803	      6.65967603	    -65.32020396	      1.36102818	      4.55093379	      9.78890716	     12.13018030	     -0.23318005	    -20.88212552	     10.93255700	    -15.42979061	     -6.17497389	     -5.54455542	     -4.74400871
      3.16000000	      0.36402259	      1.14525296	    187.95403291	     -0.06828110	      0.92180186	     -0.38002432	     27.41120473	     -5.49029834	      6.88359072	    -63.30172361	      2.17328340	      3.84740281	      8.77021870	     12.11844883	      1.22878775	    -20.37424698	     11.04583440	    -15.26548799	     -6.24493478	     -5.17272890	     -5.61359583
      3.17000000	      0.30070433	      1.42230411	    189.40191880	     -0.07587383	      0.92256755	     -0.37651823	     27.78930103	     -5.25123153	      7.03652637	    -61.02299717	      2.88561379	      3.26916536	      7.79644962	     12.02285594	      2.72097154	    -19.94762341	     11.18571740	    -15.10730058	     -6.30638932	     -4.77789395	     -6.47481269
      3.18000000	      0.22510665	      1.73064345	    190.86851860	     -0.08344247	      0.92326109	     -0.37301755	     28.04021758	     -4.97163205	      7.11944478	    -58.50038135	      3.47951206	      2.85309521	      6.86558609	     11.85323447	      4.23396345	    -19.59961845	     11.34840073	    -14.97070005	     -6.36457167	     -4.36250130	     -7.32719358
      3.19000000	      0.13944374	      2.06027382	    192.35117222	     -0.09097474	      0.92385436	     -0.36953141	     28.17846149	     -4.65539335	      7.14486722	    -55.76000902	      3.97144436	      2.63197335	      5.98743338	     11.62148243	      5.76161950	    -19.33637754	     11.53638597	    -14.86951292	     -6.42060008	     -3.94163822	     -8.16158467
      3.20000000	      0.04775632	      2.40173711	    193.84227573	     -0.09850839	      0.92433685	     -0.36602618	     28.21664699	     -4.31954266	      7.10520837	    -52.81868076	      4.32693324	      2.63646558	      5.14426193	     11.33765596	      7.27279596	    -19.11469666	     11.73295286	    -14.81658418	     -6.46188966	     -3.52067679	     -8.97912025
      3.21000000	     -0.06068145	      2.73558054	    195.33204423	     -0.10602232	      0.92470864	     -0.36252715	     28.15215292	     -3.96251913	      7.04468180	    -49.70302899	      4.58181032	      2.85377613	      4.33028543	     11.02070482	      8.76188477	    -18.94585071	     11.94400298	    -14.81046277	     -6.51417513	     -3.12176201	     -9.76343117
      3.22000000	     -0.17522274	      3.05246074	    196.80284377	     -0.11354688	      0.92494947	     -0.35902108	     28.00575201	     -3.59366851	      6.97907024	    -46.43589570	      4.73963182	      3.28811112	      3.53711970	     10.68249668	     10.20449998	    -18.79785100	     12.16135782	    -14.84541970	     -6.56198235	     -2.75393569	    -10.49424278
      3.23000000	     -0.29269680	      3.34092415	    198.24229833	     -0.12107438	      0.92505312	     -0.35553284	     27.79052487	     -3.21687185	      6.93776592	    -43.04277171	      4.81070042	      3.92589651	      2.76151703	     10.33442589	     11.58724609	    -18.66384847	     12.39016981	    -14.90618736	     -6.61170770	     -2.43111625	    -11.17199106
      3.24000000	     -0.40641739	      3.59618816	    199.63139612	     -0.12860989	      0.92500808	     -0.35205458	     27.52060302	     -2.83756626	      6.94389598	    -39.54667026	      4.81384393	      4.74447057	      2.00303195	      9.98664825	     12.89518235	    -18.53536741	     12.62948070	    -14.97643243	     -6.65976172	     -2.15708013	    -11.76577004
      3.25000000	     -0.51073728	      3.81782372	    200.95836883	     -0.13617692	      0.92480763	     -0.34860096	     27.20792764	     -2.45750239	      7.01043808	    -35.96863792	      4.76676338	      5.70653051	      1.25421988	      9.64100839	     14.11481929	    -18.39625585	     12.88272434	    -15.03716249	     -6.70125889	     -1.93373369	    -12.28665533
      3.26000000	     -0.60564539	      4.00379391	    202.20744309	     -0.14378107	      0.92445374	     -0.34518325	     26.85443690	     -2.08124010	      7.15202480	    -32.32287152	      4.69268735	      6.78848277	      0.51254027	      9.30360204	     15.23987593	    -18.24790340	     13.14701123	    -15.07790117	     -6.74071446	     -1.76283632	    -12.71436030
      3.27000000	     -0.69685221	      4.14963420	    203.37198660	     -0.15144597	      0.92395589	     -0.34178637	     26.45041652	     -1.71928147	      7.36659885	    -28.62158520	      4.61592300	      7.96497503	     -0.24160344	      8.97851118	     16.25571928	    -18.07599891	     13.41575181	    -15.09727098	     -6.78625927	     -1.64298842	    -13.05675218
      3.28000000	     -0.78047172	      4.25654377	    204.44414644	     -0.15917998	      0.92329473	     -0.33840458	     26.00443334	     -1.38176822	      7.63750262	    -24.88876698	      4.54049755	      9.21920822	     -1.00609575	      8.67197239	     17.16738902	    -17.88594198	     13.69579759	    -15.10799225	     -6.83396769	     -1.57468456	    -13.29059358
      3.29000000	     -0.86841088	      4.31237218	    205.42814109	     -0.16701701	      0.92248637	     -0.33500731	     25.50011031	     -1.08679929	      7.92209521	    -21.15206339	      4.47410081	     10.51222353	     -1.81209366	      8.39123386	     17.96531456	    -17.66191814	     13.97958825	    -15.12517260	     -6.90044035	     -1.56119636	    -13.44091560
      3.30000000	     -0.96605644	      4.30870396	    206.32905141	     -0.17497701	      0.92153285	     -0.33156582	     24.94214675	     -0.84557502	      8.17527867	    -17.47072704	      4.38931736	     11.82572758	     -2.67627777	      8.14326596	     18.65166836	    -17.39902774	     14.27704945	    -15.16441622	     -6.99467484	     -1.60620698	    -13.51683620
      3.31000000	     -1.06996162	      4.24558936	    207.13841939	     -0.18310526	      0.92042462	     -0.32807432	     24.35609350	     -0.65110633	      8.36072306	    -13.92333034	      4.29179675	     13.13304680	     -3.61921871	      7.92863731	     19.24344829	    -17.06446657	     14.56906211	    -15.23662509	     -7.10826083	     -1.70926751	    -13.49133308
      3.32000000	     -1.17214617	      4.10454396	    207.85592607	     -0.19139709	      0.91915848	     -0.32454200	     23.77491996	     -0.51210880	      8.47059097	    -10.61517353	      4.18189763	     14.39112412	     -4.64434024	      7.77187430	     19.75544357	    -16.66236472	     14.87155212	    -15.34878920	     -7.24709019	     -1.89705703	    -13.38918589
      3.33000000	     -1.29452460	      3.92657515	    208.51280647	     -0.19986363	      0.91776406	     -0.32091481	     23.21439725	     -0.37953025	      8.41931718	     -7.63566596	      4.06312876	     15.44180544	     -5.74163468	      7.62171938	     20.16897829	    -16.21891219	     15.15385977	    -15.46554054	     -7.40894256	     -2.10555915	    -13.25776846
      3.34000000	     -1.41708678	      3.69339939	    209.09762040	     -0.20846042	      0.91624212	     -0.31723229	     22.73312694	     -0.25815136	      8.26147244	     -5.11445360	      3.97654960	     16.28033280	     -6.89924686	      7.51200522	     20.51111284	    -15.73644552	     15.43604832	    -15.59559592	     -7.59386105	     -2.36751603	    -13.08060172
      3.35000000	     -1.54091159	      3.43878694	    209.62383418	     -0.21716326	      0.91460677	     -0.31347520	     22.36829917	     -0.11163904	      7.99091312	     -3.13625686	      3.93892408	     16.82993157	     -8.08561047	      7.41586159	     20.78763755	    -15.24329212	     15.70908922	    -15.71124185	     -7.78700642	     -2.64212372	    -12.88077464
      3.36000000	     -1.65712543	      3.17744237	    210.10887585	     -0.22591517	      0.91287103	     -0.30963531	     22.15590280	      0.06594914	      7.64106528	     -1.76835108	      3.95327268	     17.08186419	     -9.26378180	      7.33214444	     21.03136306	    -14.77568955	     15.97951756	    -15.78905266	     -7.97906564	     -2.91577724	    -12.66685135
